<svg width="24" height="24" viewBox="0 0 24 24" fill="none" xmlns="http://www.w3.org/2000/svg">
<path d="M11.5303 8.46967C11.2374 8.17678 10.7626 8.17678 10.4697 8.46967C10.1768 8.76256 10.1768 9.23744 10.4697 9.53033L11.5303 8.46967ZM14 12L14.5303 12.5303C14.8232 12.2374 14.8232 11.7626 14.5303 11.4697L14 12ZM10.4697 14.4697C10.1768 14.7626 10.1768 15.2374 10.4697 15.5303C10.7626 15.8232 11.2374 15.8232 11.5303 15.5303L10.4697 14.4697ZM10.4697 9.53033L13.4697 12.5303L14.5303 11.4697L11.5303 8.46967L10.4697 9.53033ZM13.4697 11.4697L10.4697 14.4697L11.5303 15.5303L14.5303 12.5303L13.4697 11.4697Z" fill="#667479"/>
</svg>
